<svg xmlns="http://www.w3.org/2000/svg" xmlns:xlink="http://www.w3.org/1999/xlink" viewBox="0 0 400 300"><defs><linearGradient id="linear-gradient" x1="148.79" y1="267.33" x2="180.85" y2="247.11" gradientUnits="userSpaceOnUse"><stop offset="0" stop-color="#fff" stop-opacity="0"/><stop offset="0.98"/></linearGradient><linearGradient id="linear-gradient-2" x1="190.63" y1="169.76" x2="159.35" y2="212.7" gradientTransform="matrix(-1, 0, 0, 1, 440.05, 0)" gradientUnits="userSpaceOnUse"><stop offset="0.01" stop-color="#88a80d"/><stop offset="1" stop-color="#fff"/></linearGradient></defs><title>OK</title><g style="isolation:isolate"><g id="Layer_2" data-name="Layer 2"><path d="M359,194.23c-33.1,17.76-130.5,74-161.17,91.71a18.61,18.61,0,0,1-18.71,0L62.4,217.73c-4.64-2.71-3.16-7.84,1.52-10.49L226.82,112.6a5.57,5.57,0,0,1,5.5,0l126.8,72.11A5.44,5.44,0,0,1,359,194.23Z" fill="#63198a"/><path d="M155.44,267.83c1.17.53,14.37,8.5,15.71,9l62.21-36.76-6.53-14.8-30.89-9-65.61,36.62C141.39,259.31,143.8,262.53,155.44,267.83Z" opacity="0.32" fill="url(#linear-gradient)" style="mix-blend-mode:multiply"/><path d="M265.5,173.27c10.84,7.18,46.54,34.47,57.25,41.81-18.23,10.07-28,15.34-30.06,16.79l-65.29-37Z" fill="url(#linear-gradient-2)" style="mix-blend-mode:multiply"/><path d="M321.06,161.16s-1.36,12.5-9.15,15.36-18.57-8.18-18.57-8.18l16.52-12.17" fill="#56403d"/><path d="M301.06,127.11c1.42-1,3.28-.65,4.93,0,6.76,2.79,16.52,8.32,16.41,18.2a110.58,110.58,0,0,1-1.35,15.82c-.32,2.06-.6,4.62-1.63,6.39-1.55,2.65-8.39-3.33-9.69-4.33-2.22-1.71-4.37-3.54-6.49-5.41-1.58-1.39-5.11-3.59-5.74-5.79a5.93,5.93,0,0,1-.16-1.52,99.28,99.28,0,0,1,.66-13.91C298.37,133.6,298.55,128.85,301.06,127.11Z" fill="#56403d"/><path d="M284.71,196.9c-.37.53.53,5.53-1.27,7.07s-6.43,4.18-5,5.27c4.17,3.22,13.62-5,13.62-5v-8.65" fill="#ff666d"/><path d="M274,192.46c-.37.53.53,5.53-1.27,7.07s-6.3,4-5,5.27c3.46,3.31,14.91-3.86,14.91-3.86l-1.29-9.77" fill="#ff666d"/><path d="M307.58,163.94s.58,6.2-2.35,8.69-13.34,5.47-13.34,5.47,3.53,17,2.89,18.54-8.21,2.37-12.18,0c0,0-5.81,1.5-9.66-2,0,0-7.44-21-5.07-27.9s15.36-8.8,15.36-8.8Z" fill="#ffe0de"/><polygon points="311.93 172.01 311.91 176.52 309.58 176.89 311.93 172.01" fill="#56403d"/><path d="M271.92,142.15,248,128.36a1.26,1.26,0,0,0-1.88,1.09v18.24a2,2,0,0,0,1,1.73l23.53,13.3a1.49,1.49,0,0,0,2.28-1.27V144A2.08,2.08,0,0,0,271.92,142.15Z" fill="#3aaeca"/><polygon points="311.93 174.84 311.93 211.15 309.69 212.74 306.24 210.47 306.24 174.18 310.95 172.01 311.93 174.84" fill="#3aaeca"/><path d="M310.85,177.36l-32.8,19.07a2.18,2.18,0,0,1-2.25,0L228.58,166.7a2.18,2.18,0,0,1,.12-3.76l31.85-17.19a2.18,2.18,0,0,1,2.12,0l48.17,27.81A2.18,2.18,0,0,1,310.85,177.36Z" fill="#3aaeca"/><path d="M232.41,162.32v33.56l-2.24,1.58-3.45-2.27V161.67C228.63,161.75,230.52,162,232.41,162.32Z" fill="#3aaeca"/><polygon points="281.73 189.16 281.73 225.48 279.49 227.06 276.04 224.79 276.04 188.5 280.75 186.33 281.73 189.16" fill="#3aaeca"/><g opacity="0.47"><polygon points="311.93 174.84 311.93 211.15 309.69 212.74 306.24 210.47 306.24 174.18 310.95 172.01 311.93 174.84" fill="#00275e"/><path d="M310.85,177.36l-32.8,19.07a2.18,2.18,0,0,1-2.25,0L228.58,166.7a2.18,2.18,0,0,1,.12-3.76l31.85-17.19a2.18,2.18,0,0,1,2.12,0l48.17,27.81A2.18,2.18,0,0,1,310.85,177.36Z" fill="#00275e"/><path d="M232.41,162.32v33.56l-2.24,1.58-3.45-2.27V161.67C228.63,161.75,230.52,162,232.41,162.32Z" fill="#00275e"/><polygon points="281.73 189.16 281.73 225.48 279.49 227.06 276.04 224.79 276.04 188.5 280.75 186.33 281.73 189.16" fill="#00275e"/></g><path d="M311,174l-33.58,19.53a1.79,1.79,0,0,1-1.85,0l-48-30.17a1.79,1.79,0,0,1,.1-3.09l32.64-17.61a1.79,1.79,0,0,1,1.74,0L311,170.93A1.79,1.79,0,0,1,311,174Z" fill="#3aaeca"/><path d="M271.92,142.15,248,128.36a1.26,1.26,0,0,0-1.88,1.09v18.24a2,2,0,0,0,1,1.73l23.53,13.3a1.49,1.49,0,0,0,2.28-1.27V144A2.08,2.08,0,0,0,271.92,142.15Z" fill="#56403d"/><polygon points="274.84 180.81 263.81 174.25 276.77 166.59 288.11 173.16 274.84 180.81" fill="#56403d"/><polygon points="270.02 180.32 258.99 173.75 271.95 166.1 283.29 172.67 270.02 180.32" fill="#3aaeca"/><polyline points="261.02 153.98 261.02 161.78 255.6 158.88 255.6 151.2" fill="#56403d"/><ellipse cx="259.56" cy="160.58" rx="2.18" ry="9.19" transform="translate(1.1 322.94) rotate(-63.88)" fill="#56403d"/><path d="M295.39,173.46c-.56.71-.11,2.26-3,3.54s-9.93,1.61-8.81-1.2,6.66-3.79,6.66-3.79" fill="#5ed18d"/><path d="M293.84,167.24a54.94,54.94,0,0,1-4.29,3.87c-1.05.68-5.08,2-4.78,3.34s3.86-1.13,4.09-1a2.66,2.66,0,0,0,2.44,1.4c2.12.21,3,0,3.54-.7s3.12-3.79,2.23-4.91A9.5,9.5,0,0,0,293.84,167.24Z" fill="#fbb5ad"/><path d="M268,133.31s-3.3-3-4.29-4.88-1.78-.11-1.7.81,1.7,2.76,1.7,2.76-.52,1.78-.52,2-.49,2.83,1,3.69a13.17,13.17,0,0,0,4.64,1l.52-4.18Z" fill="#fbb5ad"/><path d="M267.88,131.88c7.64,4.1,17.06,4.4,25.31,1.86a1.58,1.58,0,0,1,.34,0l-.41,10.87c-13.4,3.68-26.1-5.26-26.1-5.26C268.2,137.49,268.14,134.26,267.88,131.88Z" fill="#f47a63"/><path d="M291.55,136.39a14.81,14.81,0,0,1,3.94-4.42c2.29,1.34,5.87,2.13,8,3.78,6,4.68,5.69,12.88,5.05,19.67-.26,2.78-.93,5.73-.93,8.51a18.81,18.81,0,0,1-6.28,1.48,102.63,102.63,0,0,1-10.51-7.56C290.9,150.7,291.12,143.54,291.55,136.39Z" fill="#f47a63"/><path d="M291.7,127.49s-.41,11.25,3.41,12,7-2.4,7.29-4.56a15.66,15.66,0,0,0-.67-5.21S298.39,126.34,291.7,127.49Z" fill="#fbb5ad"/><path d="M291,125.62c-.59-2.61,2.8-4.94,4.89-3a3.88,3.88,0,0,1,3-1.44c1.61,0,2.35,1,2.48,2.49a2.9,2.9,0,0,1,2.52.72,2.61,2.61,0,0,1,.55,2.95,2.66,2.66,0,0,1,2.12,2.56,3.24,3.24,0,0,1-.29,1.63,2.49,2.49,0,0,1,.24.49,2.57,2.57,0,0,1-.72,2.74,3,3,0,0,1-1.57.79,2.27,2.27,0,0,1-1.84,1.57,2.19,2.19,0,0,1-2.41-1.63,2.13,2.13,0,0,1,0-.9,5.16,5.16,0,0,1-.88-3.43,1.9,1.9,0,0,1-.49-.13,2.16,2.16,0,0,1-1.07-1.1,3,3,0,0,1-1.53.41,1.45,1.45,0,0,1-1.23-.76,3.57,3.57,0,0,1-3.95-.65A2.5,2.5,0,0,1,291,125.62Z" fill="#d86212"/><path d="M298.77,133.91a2.63,2.63,0,0,1,.82-1.91,1.38,1.38,0,0,1,2-.16,1.59,1.59,0,0,1,.23,1.83c-.37.71-1.15.85-1.78,1.25-.37.24-.69-.13-.67-.48A.53.53,0,0,1,298.77,133.91Z" fill="#fbb5ad"/><path d="M293.28,132.08c0-.26.41-.22.4,0l0,1.76a4.65,4.65,0,0,0,0,.81c.08.46.33.52.72.67a.2.2,0,0,1-.14.38c-.51-.2-.92-.27-1-.85A22.58,22.58,0,0,1,293.28,132.08Z" fill="#56403d"/><path d="M292.27,131.78a.2.2,0,0,1,.07.4A.2.2,0,0,1,292.27,131.78Z" fill="#56403d"/><path d="M296.36,132.4a.2.2,0,0,1,.07.4A.2.2,0,0,1,296.36,132.4Z" fill="#56403d"/><path d="M306.56,139.33a13,13,0,0,1,3.32,8.37c.2,5.35-1.81,16.95-11.21,23.41,0,0-3.82-3.29-6.91-3.52,0,0,7.19-9.33,7-13.52" fill="#f47a63"/><path d="M292.09,167.54c4.47-6.58,8.35-13.78,9.13-21.82,0-.45.75-.45.71,0-.8,8.18-4.68,15.48-9.23,22.18C292.44,168.27,291.83,167.91,292.09,167.54Z" fill="#56403d"/><path d="M263.08,120.32,248.63,112a.76.76,0,0,0-1.14.66v11a1.2,1.2,0,0,0,.61,1l14.23,8a.9.9,0,0,0,1.38-.77V121.41A1.26,1.26,0,0,0,263.08,120.32Z" fill="#3aaeca"/><path d="M90.64,90.57a4.66,4.66,0,0,0-2.32,4.06V209c-.17,2.34,2.47,4.49,4.61,3.27l46.85-26.67c1.88-1.08,87.64-49.32,87.64-51.49l4.65-119.87a2.25,2.25,0,0,0-3.35-2C207.82,24.06,100.14,85.05,90.64,90.57Z" fill="#00275e"/><path d="M114,80.43,92.56,93a1.36,1.36,0,0,0-.67,1.17V208.47a.92.92,0,0,0,1.39.8l134.26-78.1a6.13,6.13,0,0,1-2.52,4.91c-2.57,1.64-132.07,76.21-132.07,76.21s-3.57,1.62-4.61-2.65v-115a4.71,4.71,0,0,1,1.94-3.82c2.07-1.5,135.4-79.17,135.4-79.17s4.86-1.78,6.47,1.14L127.65,72.53" fill="#ffc050"/><path d="M272.63,44.54l-.92,24.34c-.14,3.64-1.23,6-3.29,7s-4.68.57-7.88-1.43a18.3,18.3,0,0,1-4.3-3.82,21.47,21.47,0,0,1-2.78-4l-.83-1.62,4.1-2.17q.12.29.39.82a11.35,11.35,0,0,0,1.24,1.73,8.26,8.26,0,0,0,2,1.83q2.13,1.33,3.41.67t1.38-3.18l.92-24.34Z" fill="#3b960b"/><path d="M351.2,93.64,361.87,137l-7-4.37-2.31-10.09-11.79-7.37L337.84,122l-7-4.37,13.38-28.35Zm-8,16.26,7.44,4.65-3.26-14.1-4.18,9.45" fill="#3b960b"/><polygon points="334.41 83.15 321.69 111.91 314.7 107.54 304.7 64.59 311.7 68.96 318.54 100.49 327.42 78.78 334.41 83.15" fill="#3b960b"/><path d="M294.88,58.44l10.67,43.38-7-4.37-2.3-10.09L284.46,80l-2.95,6.81-7-4.37L287.9,54.09Zm-8,16.26,7.44,4.65-3.27-14.1-4.17,9.45" fill="#3b960b"/><path d="M261.28,43l4.78-2.58,3.67,9.66-3.39,12.07-2.59,7.39-3.45,2-5.91-7.4-2.46,1.35a7.4,7.4,0,0,0,3.43,6c3.47,2.06,8.94,2.49,8.94,2.49L264,78.27l4.72-2.51,1-3.93" fill="#3b960b"/><polyline points="283.12 56.67 287.9 54.09 294.78 68.18 305.55 101.82 300.77 104.4 296.25 87.36 283.72 82.84 281.51 86.8 276.73 89.38" fill="#3b960b"/><polyline points="299.93 67.17 304.7 64.59 309.99 71.23 312.89 89.89 316.35 101.09 322.64 81.36 327.42 78.78 330.85 85.88 321.69 111.91 316.92 114.49" fill="#3b960b"/><polyline points="339.45 91.86 344.23 89.28 347.88 98.88 350.65 114.55 361.87 137.01 357.09 139.59 349.68 123.91 340.82 117.55 340.78 115.19 337.84 122 333.06 124.58" fill="#3b960b"/><path d="M267.85,47.12l-.92,24.34c-.14,3.64-1.23,6-3.29,7s-4.68.57-7.88-1.43a18.3,18.3,0,0,1-4.3-3.82,21.47,21.47,0,0,1-2.78-4l-.83-1.62,4.1-2.17q.12.29.39.82A11.35,11.35,0,0,0,253.57,68a8.26,8.26,0,0,0,2,1.83q2.13,1.33,3.41.67t1.38-3.18L261.28,43Z" fill="#89ed5a"/><path d="M346.42,96.22l10.67,43.38-7-4.37-2.31-10.09L336,117.77l-2.94,6.81-7-4.37,13.38-28.35Zm-8,16.26,7.44,4.65L342.61,103l-4.18,9.45" fill="#89ed5a"/><polygon points="329.63 85.73 316.92 114.49 309.92 110.12 299.93 67.17 306.92 71.54 313.76 103.08 322.64 81.36 329.63 85.73" fill="#89ed5a"/><path d="M290.1,61l10.67,43.38-7-4.37-2.3-10.09-11.79-7.37-2.95,6.81-7-4.37,13.39-28.34Zm-8,16.26,7.44,4.65-3.27-14.1-4.17,9.45" fill="#89ed5a"/><polygon points="187.3 60.1 187.3 63.48 215.53 47.07 215.53 43.78 187.3 60.1" fill="#f7931e"/><polygon points="184.5 61.72 104.92 107.72 104.92 111.35 184.5 65.11 184.5 61.72" fill="#00a99d"/><polygon points="117.37 111.51 104.92 118.71 104.92 122.34 117.37 115.11 117.37 111.51" fill="#8cc63f"/><polygon points="120.17 109.89 120.17 113.47 164.74 87.58 164.74 84.13 120.17 109.89" fill="#f7931e"/><polygon points="167.54 82.51 167.54 85.94 196.69 69.01 196.69 65.66 167.54 82.51" fill="#f15a24"/><polygon points="199.5 64.03 199.5 67.38 215.53 58.05 215.53 54.76 199.5 64.03" fill="#8cc63f"/><polygon points="185.39 83.08 105.81 129.09 105.81 132.72 185.39 86.47 185.39 83.08" fill="#00a99d"/><polygon points="191.81 100.04 191.81 103.42 220.04 87.01 220.04 83.72 191.81 100.04" fill="#f7931e"/><polygon points="189 101.66 109.43 147.67 109.43 151.3 189 105.05 189 101.66" fill="#00a99d"/><polygon points="121.88 151.46 109.43 158.65 109.43 162.28 121.88 155.05 121.88 151.46" fill="#8cc63f"/><polygon points="124.68 149.83 124.68 153.42 169.24 127.52 169.24 124.07 124.68 149.83" fill="#f7931e"/><polygon points="172.05 122.45 172.05 125.89 201.2 108.95 201.2 105.6 172.05 122.45" fill="#f15a24"/><polygon points="204.01 103.98 204.01 107.32 220.04 98 220.04 94.7 204.01 103.98" fill="#8cc63f"/><polygon points="189.9 123.03 110.32 169.03 110.32 172.66 189.9 126.42 189.9 123.03" fill="#00a99d"/><path d="M157.29,228.81a4.29,4.29,0,0,0,1.66,2,2.83,2.83,0,0,0-.69,2.32Z" fill="#30629e"/><polygon points="204.22 217.31 206.34 218.77 203.74 229.4 200.67 227.3 202.34 220.93 194.99 223.43 191.92 221.33 204.22 217.31" fill="#30629e"/><g style="isolation:isolate"><path d="M234.35,230.16l1,4.26a4.18,4.18,0,0,0-1.73-2.18A2.84,2.84,0,0,0,234.35,230.16Z" fill="#30629e"/><path d="M234.35,230.16a2.84,2.84,0,0,1-.71,2.08,3.86,3.86,0,0,1-.88.75l-29.84,18.74a6,6,0,0,1-3.7.77,6.8,6.8,0,0,1-2.65-.81L159.4,231.07l-.45-.28a4.29,4.29,0,0,1-1.66-2,3,3,0,0,1,1.36-3.68L186.83,207a6,6,0,0,1,3.74-.8,6.85,6.85,0,0,1,2.48.72l38.84,20A4.13,4.13,0,0,1,234.35,230.16Zm-35.21,7.29,1.6-1.58-12.23-14.74-1.6,1.57,12.23,14.75m-15.3,3.4,12.3-4-3.06-2.09-7.35,2.48,1.67-6.36-3.08-2.1-2.61,10.63,2.13,1.45m19.89-11.45,2.61-10.63-2.12-1.46-12.3,4,3.07,2.1,7.35-2.5-1.67,6.37,3.07,2.1" fill="#3aaeca"/></g><path d="M233.64,232.23a4.18,4.18,0,0,1,1.73,2.18,3,3,0,0,1-1.47,3.49l-29.84,18.74a6,6,0,0,1-3.7.77,6.8,6.8,0,0,1-2.65-.81L160.54,236a4.19,4.19,0,0,1-2.28-2.89,2.83,2.83,0,0,1,.69-2.32l.45.28,37.18,20.62a6.8,6.8,0,0,0,2.65.81,6,6,0,0,0,3.7-.77L232.76,233A3.86,3.86,0,0,0,233.64,232.23Z" fill="#30629e"/><polygon points="188.51 221.13 200.74 235.87 199.14 237.45 186.92 222.7 188.51 221.13" fill="#30629e"/><polygon points="184.33 228.77 187.41 230.87 185.74 237.22 193.09 234.75 196.15 236.83 183.85 240.85 181.72 239.4 184.33 228.77" fill="#30629e"/></g></g></svg>